<?xml version="1.0" encoding="utf-8"?>
<!-- Generator: Adobe Illustrator 26.1.0, SVG Export Plug-In . SVG Version: 6.00 Build 0)  -->
<svg version="1.1" id="Layer_1" xmlns="http://www.w3.org/2000/svg" xmlns:xlink="http://www.w3.org/1999/xlink" x="0px" y="0px"
	 viewBox="0 0 1022.5 360" style="enable-background:new 0 0 1022.5 360;" xml:space="preserve">
<style type="text/css">
	.st0{fill:#1877F2;}
</style>
<path class="st0" d="M181.9,203.9c0-28.5,13.5-50,41.8-50c15.4,0,24.9,7.9,29.4,17.8v-15.6h29.6v102.1h-29.6v-15.4
	c-4.3,9.9-13.9,17.6-29.4,17.6c-28.3,0-41.8-21.4-41.8-50V203.9z M212.8,210.8c0,15.2,5.6,25.3,19.9,25.3c12.7,0,19.1-9.2,19.1-23.8
	V202c0-14.6-6.4-23.8-19.1-23.8c-14.4,0-19.9,10.1-19.9,25.3V210.8z"/>
<path class="st0" d="M347,153.9c12,0,23.4,2.6,29.6,6.9l-6.9,21.9c-6.4-3.1-13.5-4.7-20.6-4.7c-16.7,0-24,9.6-24,26.2v6
	c0,16.5,7.3,26.2,24,26.2c7.1,0,14.2-1.7,20.6-4.7l6.9,21.9c-6.2,4.3-17.6,6.9-29.6,6.9c-36.2,0-52.8-19.5-52.8-50.8v-4.7
	C294.2,173.4,310.8,153.9,347,153.9z"/>
<path class="st0" d="M380.7,211v-9c0-28.9,16.5-48,50.2-48c31.7,0,45.7,19.3,45.7,47.6v16.3h-65c0.6,13.9,6.9,20.2,24,20.2
	c11.6,0,23.8-2.4,32.8-6.2L474,253c-8.1,4.3-24.9,7.5-39.7,7.5C395.2,260.5,380.7,241,380.7,211z M411.5,197.7h37.3v-2.6
	c0-11.1-4.5-20-18-20C416.9,175.1,411.5,183.9,411.5,197.7L411.5,197.7z"/>
<path class="st0" d="M591,210.3c0,28.5-13.7,50-42,50c-15.4,0-26.2-7.7-30.5-17.6v15.4h-29.2V104.8l30.9-2.8v68.2
	c4.5-9,14.4-16.3,28.7-16.3c28.3,0,42,21.4,42,50L591,210.3z M560.1,203.2c0-14.4-5.6-25.1-20.4-25.1c-12.7,0-19.5,9-19.5,23.6v10.7
	c0,14.6,6.9,23.6,19.5,23.6c14.8,0,20.4-10.7,20.4-25.1V203.2z"/>
<path class="st0" d="M601.3,209.7v-5.1c0-29.4,16.7-50.6,50.8-50.6s50.8,21.2,50.8,50.6v5.1c0,29.4-16.7,50.6-50.8,50.6
	S601.3,239.1,601.3,209.7z M672.1,202.4c0-13.5-5.6-24.2-20-24.2s-20,10.7-20,24.2v9.4c0,13.5,5.6,24.2,20,24.2s20-10.7,20-24.2
	V202.4z"/>
<path class="st0" d="M713.3,209.7v-5.1c0-29.4,16.7-50.6,50.8-50.6s50.8,21.2,50.8,50.6v5.1c0,29.4-16.7,50.6-50.8,50.6
	S713.3,239.1,713.3,209.7z M784.1,202.4c0-13.5-5.6-24.2-20-24.2s-19.9,10.7-19.9,24.2v9.4c0,13.5,5.6,24.2,19.9,24.2
	s20-10.7,20-24.2V202.4z"/>
<path class="st0" d="M857.4,204.7l30.5-48.7h32.8l-32,50.4l33.2,51.7h-32.8l-31.7-50v50h-30.9V104.8l30.9-2.8V204.7z"/>
</svg>
